<?xml version="1.0" encoding="UTF-8"?>
<svg id="Layer_2" data-name="Layer 2" xmlns="http://www.w3.org/2000/svg" viewBox="0 0 788.64 373.01">
  <defs>
    <style>
      .cls-1 {
        fill: #5f3f31;
      }

      .cls-2 {
        fill: #cbaa87;
      }
    </style>
  </defs>
  <g id="Layer_1-2" data-name="Layer 1">
    <g>
      <path class="cls-2" d="M118.04,281.86c3.99,4.44,6.94,9.29,8.85,14.57,1.91,5.28,2.86,11.42,2.86,18.43,0,16.68-8.27,28.43-18.5,41.25-4.43,5.56-25.38,14.73-45.91,16.23-8.41.62-16.86-1.31-25.28-3.93-8.43-2.62-15.7-5.79-21.82-9.52l-5.72,9.71H1.86l-1.86-64.67h10.78c2.22,7.98,4.81,15.19,7.78,21.63,2.97,6.43,6.9,12.44,11.78,18.03,4.61,5.24,10,9.4,16.17,12.51,6.17,3.11,13.33,4.66,21.49,4.66,6.12,0,11.46-.8,16.03-2.4,4.57-1.6,8.27-3.87,11.11-6.8,2.84-2.93,4.95-6.37,6.32-10.33,1.38-3.95,2.06-8.51,2.06-13.66,0-7.55-2.13-14.59-6.39-21.12-4.26-6.53-10.6-11.48-19.03-14.86-5.77-2.29-12.38-4.84-19.83-7.62-7.45-2.78-13.89-5.41-19.3-7.89-10.64-4.79-18.92-11.06-24.82-18.82-5.9-7.76-8.85-17.9-8.85-30.4,0-7.18,1.46-13.88,4.39-20.09,2.93-6.21,7.1-11.75,12.51-16.63,5.14-4.61,11.22-8.23,18.23-10.84,7.01-2.62,14.32-3.93,21.96-3.93,8.69,0,16.48,1.33,23.35,3.99,6.88,2.66,13.15,5.77,18.83,9.31l5.46-9.05h10.64l1.07,62.68h-10.78c-1.95-7.19-4.15-14.06-6.58-20.63-2.44-6.56-5.61-12.51-9.52-17.83-3.82-5.14-8.47-9.25-13.97-12.31-5.5-3.06-12.24-4.59-20.23-4.59-8.43,0-15.62,2.71-21.56,8.12-5.95,5.41-8.91,12.02-8.91,19.83s1.91,14.93,5.72,20.29c3.82,5.37,9.36,9.78,16.64,13.24,6.47,3.11,12.84,5.79,19.1,8.05,6.25,2.26,12.31,4.68,18.17,7.25,5.32,2.31,10.44,4.92,15.37,7.85,4.92,2.93,9.2,6.34,12.84,10.25Z"/>
      <path class="cls-2" d="M312.67,230.89h-9.18c-.8-3.19-2.24-6.99-4.33-11.38-2.09-4.39-4.42-8.54-7-12.44-2.67-4.08-5.58-7.65-8.74-10.71-3.16-3.06-6.2-4.81-9.14-5.26-2.76-.35-6.22-.62-10.4-.8-4.18-.18-8.05-.27-11.61-.27h-7.73v151.04c0,2.93.62,5.61,1.86,8.05,1.24,2.44,3.41,4.33,6.52,5.66,1.6.62,4.94,1.46,10.05,2.53,5.1,1.06,9.07,1.64,11.91,1.73v9.45h-89.16v-9.45c2.48-.18,6.28-.53,11.38-1.06,5.1-.53,8.63-1.2,10.58-2,2.93-1.15,5.08-2.81,6.46-4.99,1.38-2.17,2.06-5.08,2.06-8.72v-152.24h-7.72c-2.75,0-6.17.07-10.25.2-4.08.13-7.98.42-11.71.87-2.93.36-5.97,2.11-9.12,5.26-3.15,3.15-6.05,6.72-8.72,10.71-2.66,3.99-5.01,8.23-7.05,12.71-2.04,4.48-3.46,8.18-4.26,11.11h-9.32v-51.23h164.62v51.23Z"/>
      <path class="cls-2" d="M596.61,312.33l-3.99,56.16h-147.58v-9.45c2.13-.18,5.21-.49,9.25-.93,4.04-.44,6.85-1.02,8.45-1.73,2.66-1.15,4.59-2.84,5.79-5.06,1.2-2.22,1.8-5.06,1.8-8.52v-135.2c0-3.02-.51-5.68-1.53-7.99-1.02-2.3-3.04-4.17-6.05-5.59-2.04-1.06-4.9-2.11-8.58-3.13-3.68-1.02-6.72-1.62-9.12-1.8v-9.45h79.71v9.45c-2.48.09-5.7.53-9.65,1.33-3.95.8-6.81,1.51-8.58,2.13-3.02,1.06-5.08,2.88-6.19,5.46-1.11,2.57-1.66,5.32-1.66,8.25v126.82c0,5.86.29,10.4.87,13.64.57,3.24,1.93,5.75,4.06,7.52,2.04,1.6,5.08,2.64,9.12,3.13,4.04.49,9.69.73,16.97.73,3.28,0,6.7-.09,10.25-.27,3.55-.18,6.92-.53,10.12-1.06,3.1-.53,5.96-1.26,8.58-2.2,2.62-.93,4.55-2.11,5.79-3.53,3.64-4.08,7.87-10.27,12.71-18.56,4.83-8.3,8.18-15.02,10.05-20.16h9.45Z"/>
      <path class="cls-2" d="M781.01,233.49c-5.08-12.29-12.13-22.78-21.14-31.47-8.72-8.52-19.08-15.13-31.06-19.83-11.87-4.66-24.5-7-37.88-7.04v11.86c10.1.05,19.09,2.14,26.95,6.3,7.96,4.21,14.57,10.09,19.84,17.63,5.27,7.63,9.28,16.86,12.01,27.68,2.74,10.82,4.1,22.71,4.1,35.66s-1.22,24-3.67,34.2c-2.45,10.2-6.35,19.34-11.72,27.41-5.18,7.98-11.89,14.2-20.13,18.63-8.14,4.38-17.28,6.58-27.38,6.63v11.86c13.19-.04,25.62-2.34,37.31-6.91,11.79-4.61,22.14-11.18,31.06-19.7,9.21-8.61,16.39-19.03,21.57-31.27,5.18-12.24,7.77-25.86,7.77-40.85s-2.54-28.5-7.62-40.79Z"/>
      <path class="cls-1" d="M609.74,233.49c4.7-12.29,11.22-22.78,19.56-31.47,8.07-8.52,17.66-15.13,28.75-19.83,10.99-4.66,22.67-7,35.06-7.04v11.86c-9.35.05-17.67,2.14-24.94,6.3-7.36,4.21-13.48,10.09-18.36,17.63-4.88,7.63-8.58,16.86-11.11,27.68-2.53,10.82-3.79,22.71-3.79,35.66,0,12.6,1.13,24,3.39,34.2,2.27,10.2,5.88,19.34,10.85,27.41,4.79,7.98,11,14.2,18.63,18.63,7.54,4.38,15.99,6.58,25.34,6.63v11.86c-12.2-.04-23.71-2.34-34.53-6.91-10.91-4.61-20.49-11.18-28.74-19.7-8.52-8.61-15.17-19.03-19.96-31.27-4.79-12.24-7.19-25.86-7.19-40.85,0-14.9,2.35-28.5,7.05-40.79Z"/>
      <g>
        <path class="cls-2" d="M411.36,111.17c1.12-.07,2.24-.03,3.34.16,4.6.75,8.59,3.56,11.26,7.95,2.78,4.61,3.83,10.34,2.9,16.12-1.64,10.18-9.07,17.96-17.66,18.55-1.12.08-2.24.03-3.34-.16-4.59-.71-8.59-3.55-11.27-7.95-2.78-4.61-3.82-10.33-2.9-16.11,1.66-10.16,9.07-17.97,17.66-18.56M386.85,132.04c-.35,6.11,1.07,12.03,4.09,17.03,1.84,3,4.15,5.45,6.77,7.33l-27.49,44.58,12.07,6.42,24.95-47.24c1.49.23,2.99.28,4.49.18,11.58-.78,21.51-10.83,23.64-23.89,1.17-7.25-.15-14.5-3.75-20.39-3.69-6.07-9.33-10.02-15.91-11.06-1.61-.26-3.24-.34-4.88-.26-8.87.61-16.75,6.66-20.92,15.29-.55-.13-1.14-.19-1.74-.17-3.43.25-5.74,12.76-1.32,12.17"/>
        <path class="cls-2" d="M324.76,112.46c2.89-4.34,7.05-7.06,11.74-7.65,1.13-.14,2.29-.15,3.43-.03,8.67.95,15.9,9.15,17.17,19.53.69,5.89-.56,11.65-3.59,16.21-2.86,4.36-7.03,7.09-11.69,7.65-1.15.16-2.28.14-3.43.02-8.7-.91-15.92-9.12-17.2-19.5-.73-5.91.56-11.65,3.57-16.23M370.07,212.27c2.12-.07,3.94,1.6,4.01,3.78.1,2.14-1.6,3.94-3.75,4.03-2.15.05-3.94-1.6-4.01-3.77-.09-2.15,1.61-3.94,3.76-4.04M298.7,97.41c.71,1.46,17.63,9.08,16.69,21.61-.25,3.42-.88,6.88-.46,10.41,1.41,11.54,8.94,20.99,18.56,23.97l25.93,55.22,7.92,141.34c.03.6.2,1.18.48,1.7l3.02,5.16c.25.43.89.32.99-.16l2.34-6.89c.04-.19.06-.38.07-.57l7.6-140.61-14.6-7.19-20.02-48.3c4.62-1.64,8.66-4.84,11.61-9.33,3.83-5.76,5.43-12.95,4.56-20.23-1.63-13.14-11.18-23.6-22.72-24.79-1.62-.2-3.27-.16-4.92.03-3.64.46-7.02,1.89-10.02,3.97-6.02,4.17-7.83,5.87-20.43-7.74-1.92-2.08-7.37.8-6.6,2.39"/>
        <polygon class="cls-1" points="365.88 213.09 366.61 212.28 373.43 218.34 372.66 219.23 365.88 213.09"/>
        <path class="cls-1" d="M370.97,356.99l-2.7-137.43c-1.14-.65-1.92-1.84-1.97-3.26-.04-.83.2-1.6.62-2.25l-1.04-.94.75-.84,1.03.93c.15-.13.31-.25.48-.35l-.22-11.1-.69-.34-20.02-48.3c4.62-1.64,8.66-4.84,11.61-9.33,3.83-5.76,5.43-12.95,4.56-20.23-1.63-13.14-11.18-23.6-22.72-24.79-.87-.11-1.75-.14-2.64-.13-.76.01-1.52.07-2.28.16-3.64.46-7.02,1.89-10.02,3.97-2.42,1.68-4.17,2.96-6.2,3-3.02.06-6.7-2.61-14.22-10.74-.5-.54-1.22-.74-2.02-.73-2.29.05-5.15,1.94-4.58,3.11.71,1.46,17.63,9.09,16.69,21.61-.25,3.42-.88,6.88-.46,10.41,1.41,11.54,8.94,20.99,18.56,23.97l25.93,55.22,7.92,141.34c.03.6.2,1.18.48,1.7l3.02,5.16c.04.06.08.12.14.16M338.05,104.71c.63-.01,1.26.01,1.89.08,8.67.95,15.9,9.15,17.17,19.53.69,5.89-.56,11.65-3.59,16.21-2.86,4.36-7.03,7.09-11.69,7.65-.49.07-.98.1-1.47.11-.65.01-1.31-.02-1.96-.09-8.7-.91-15.92-9.12-17.2-19.5-.73-5.91.56-11.65,3.57-16.23,2.89-4.34,7.05-7.06,11.74-7.65.51-.06,1.03-.1,1.55-.11"/>
        <polygon class="cls-1" points="368.19 215.19 368.16 213.65 367.66 213.21 366.63 212.28 365.88 213.12 366.92 214.05 368.19 215.19"/>
      </g>
      <path class="cls-1" d="M695.14,299.87h-16.67v6.53h16.67c1.81,0,3.27-1.46,3.27-3.27s-1.46-3.27-3.27-3.27Z"/>
      <path class="cls-1" d="M695.14,276.03h-16.67v6.53h16.67c1.81,0,3.27-1.46,3.27-3.27s-1.46-3.27-3.27-3.27Z"/>
      <path class="cls-1" d="M695.14,311.8h-16.67v6.53h16.67c1.81,0,3.27-1.46,3.27-3.27s-1.46-3.27-3.27-3.27Z"/>
      <path class="cls-1" d="M695.14,287.95h-16.67v6.54h16.67c1.81,0,3.27-1.46,3.27-3.27s-1.46-3.27-3.27-3.27Z"/>
      <path class="cls-1" d="M695.14,354.09c1.81,0,3.27-1.46,3.27-3.27s-1.46-3.27-3.27-3.27h-16.67v.78c0,2.33-.66,4.23-1.7,5.75h18.36Z"/>
      <path class="cls-1" d="M695.14,335.64h-16.67v6.53h16.67c1.81,0,3.27-1.46,3.27-3.27s-1.46-3.27-3.27-3.27Z"/>
      <path class="cls-1" d="M695.14,323.71h-16.67v6.53h16.67c1.81,0,3.27-1.46,3.27-3.27s-1.46-3.27-3.27-3.27Z"/>
      <path class="cls-1" d="M695.14,264.11h-16.67v6.53h16.67c1.81,0,3.27-1.46,3.27-3.27s-1.46-3.27-3.27-3.27Z"/>
      <path class="cls-1" d="M695.14,192.59h-17.56c.57,1.26.9,2.72.9,4.4v2.14h16.67c1.81,0,3.27-1.46,3.27-3.27s-1.46-3.27-3.27-3.27Z"/>
      <path class="cls-1" d="M665.69,363.2c1.08-1.32,2.55-2.33,4.37-2.91h-2.09v-6.22h12.31c-.89-1.52-1.46-3.42-1.46-5.75v-.78h-10.85v-5.39h10.85v-6.53h-10.85v-5.39h10.85v-6.53h-10.85v-5.39h10.85v-6.53h-10.85v-5.39h10.85v-6.53h-10.85v-5.39h10.85v-6.54h-10.85v-5.39h10.85v-6.53h-10.85v-5.39h10.85v-6.53h-10.85v-5.39h10.85v-6.53h-10.85v-5.39h10.85v-6.54h-10.85v-5.39h10.85v-6.53h-10.85v-5.39h10.85v-6.53h-10.85v-5.39h10.85v-6.53h-10.85v-5.39h10.85v-2.14c0-1.68.28-3.14.77-4.4h-11.62v-5.45h17.96c1.19-.25,2.42-.25,3.61,0,0,0-1.25-7.65-7.06-6.6-7.29,1.31-14.44,3.38-21.64,5.12-.29.07-.55.07-.83.12-1.51,1.02-3.37,1.68-5.69,1.66-.85,0-1.99.27-3,.82-1.4.76-2.48,1.49-3.57,2.41-3.04,2.56-5.69,5.61-8.13,8.74-1.32,1.68-3.23,2.6-5.29,2.91v146.49c2.94.52,5.65,2.11,6.92,4.85,3.43,7.43,14.98,8.58,22.23,9.17.79.06,1.52.21,2.21.4Z"/>
      <path class="cls-1" d="M695.14,252.19h-16.67v6.53h16.67c1.81,0,3.27-1.46,3.27-3.27s-1.46-3.27-3.27-3.27Z"/>
      <path class="cls-1" d="M695.14,204.51h-16.67v6.53h16.67c1.81,0,3.27-1.46,3.27-3.27s-1.46-3.27-3.27-3.27Z"/>
      <path class="cls-1" d="M695.14,216.43h-16.67v6.53h16.67c1.81,0,3.27-1.46,3.27-3.27s-1.46-3.27-3.27-3.27Z"/>
      <path class="cls-1" d="M695.14,240.27h-16.67v6.54h16.67c1.81,0,3.27-1.46,3.27-3.27s-1.46-3.27-3.27-3.27Z"/>
      <path class="cls-1" d="M695.14,228.35h-16.67v6.53h16.67c1.81,0,3.27-1.46,3.27-3.27s-1.46-3.27-3.27-3.27Z"/>
      <g>
        <path class="cls-1" d="M321.8,105.82c.51-.07,1.02-.14,1.53-.21.89,0,1.71.23,2.5.62.4-.1.81-.15,1.24-.13h2.13c.91-.59,1.97-.96,3.05-.96h.13c1.1-1.3,2.74-2.17,4.45-2.17h6.12c-.57-3.49-1.6-6.88-3.26-10.17-2.62-5.17-6.35-9.65-11.21-13.46-4.85-3.81-13.91-9.27-27.18-16.39-16.27-8.73-26.57-15.71-30.9-20.95-3-3.56-4.5-7.5-4.5-11.83,0-5.66,2.37-10.7,7.12-15.14,4.75-4.43,10.75-6.65,18.01-6.65,6.42,0,12.64,1.64,18.64,4.92,6,3.28,10.63,7.72,13.88,13.3,3.25,5.59,5.5,13.09,6.76,22.52h3.88V0h-3.88c-.7,3.28-1.62,5.46-2.78,6.55-1.15,1.08-2.64,1.62-4.45,1.62-1.61,0-4.36-.87-8.27-2.62-8.45-3.7-16.44-5.55-23.98-5.55-12.08,0-22.03,3.68-29.85,11.05-7.82,7.37-11.73,16.15-11.73,26.34,0,5.87,1.33,11.24,3.98,16.13,2.65,4.89,6.55,9.36,11.68,13.41,5.13,4.05,13.77,9.48,25.92,16.29,12.15,6.81,19.59,11.26,22.31,13.35,3.8,2.88,6.63,5.99,8.55,9.31.04-.01.08-.04.12-.05Z"/>
        <path class="cls-1" d="M317.69,133.89c-.13-.13-.23-.29-.35-.43-5.06,4.59-11.95,6.89-20.66,6.89-7.54,0-14.47-1.68-20.79-5.03-6.32-3.35-11.02-7.56-14.09-12.62-3.07-5.06-5.52-12.69-7.33-22.89h-3.88v48.7h3.88c.49-3.28,1.24-5.45,2.25-6.49,1.01-1.05,2.39-1.57,4.14-1.57s6.13,1.1,12.94,3.3c6.81,2.2,11.29,3.47,13.46,3.82,3.63.63,7.5.94,11.63.94,10.23,0,18.96-2.42,26.28-7.15l-7.48-7.48Z"/>
      </g>
      <g>
        <path class="cls-2" d="M358.83,3.25v3.88h5.34c5.38,0,9.27,1.36,11.68,4.08s3.61,8.45,3.61,17.18v55.51c0,17.11,1.11,28.77,3.35,34.98,1.34,3.64,3.15,6.91,5.28,9.92.75-.5,1.55-.91,2.38-1.27.22-.51.44-1.02.65-1.53-.23.56.19-.48.22-.58.12-.32.23-.65.33-.98,1.06-3.33,1.99-6.68,3.5-9.84.47-.99,1.49-1.4,2.52-1.43.56-1,1.18-1.97,1.93-2.9.39-.48.93-.69,1.5-.78-.01-.08-.03-.16-.04-.24-1.01-7.12-1.52-13.44-1.52-18.96V28.38c0-7.96.87-13.2,2.62-15.71,2.51-3.7,6.7-5.55,12.57-5.55h5.45v-3.88h-61.38Z"/>
        <path class="cls-2" d="M460,3.25v3.88h5.34c5.38,0,9.43,1.54,12.15,4.61,1.95,2.24,2.93,7.79,2.93,16.65v57.5c0,15.08-1.35,25.78-4.03,32.1-2.69,6.32-7.7,11.5-15.03,15.55-7.33,4.05-15.64,6.07-24.93,6.07-1.54,0-3.01-.09-4.45-.21-.32,1.38-.76,2.69-1.36,4.05-.56,1.28-1.18,2.72-1.18,3.85,0,.41-.09.79-.24,1.15,1.93.1,3.91.16,5.98.16,14.24,0,25.5-2.81,33.78-8.43,8.27-5.62,13.82-12.36,16.65-20.21,2.83-7.86,4.24-18.9,4.24-33.15V29.22c0-7.89.73-12.92,2.2-15.08,3-4.68,7.3-7.02,12.88-7.02h5.34v-3.88h-50.27Z"/>
      </g>
    </g>
  </g>
</svg>